<svg width="1092" height="584" viewBox="0 0 1092 584" fill="none" xmlns="http://www.w3.org/2000/svg">
<rect width="1092" height="584" rx="20" fill="black"/>
<path d="M83.32 124V94.2H87.24V124H83.32ZM93.4269 124V93.72H97.1469V124H93.4269ZM110.559 124.48C109.012 124.48 107.612 124.12 106.359 123.4C105.132 122.68 104.172 121.68 103.479 120.4C102.812 119.093 102.479 117.6 102.479 115.92V102.44H106.199V115.52C106.199 116.587 106.412 117.52 106.839 118.32C107.292 119.12 107.906 119.747 108.679 120.2C109.479 120.653 110.386 120.88 111.399 120.88C112.412 120.88 113.306 120.653 114.079 120.2C114.879 119.747 115.492 119.093 115.919 118.24C116.372 117.387 116.599 116.373 116.599 115.2V102.44H120.359V124H116.719V119.8L117.319 120.16C116.812 121.52 115.946 122.587 114.719 123.36C113.519 124.107 112.132 124.48 110.559 124.48ZM133.842 124.48C131.682 124.48 129.802 123.947 128.202 122.88C126.602 121.813 125.469 120.373 124.802 118.56L127.762 117.12C128.376 118.4 129.216 119.413 130.282 120.16C131.349 120.907 132.536 121.28 133.842 121.28C135.016 121.28 135.989 121 136.762 120.44C137.536 119.88 137.922 119.147 137.922 118.24C137.922 117.6 137.736 117.093 137.362 116.72C137.016 116.32 136.589 116.013 136.082 115.8C135.576 115.56 135.109 115.387 134.682 115.28L131.442 114.36C129.496 113.8 128.069 113 127.162 111.96C126.282 110.92 125.842 109.707 125.842 108.32C125.842 107.04 126.162 105.933 126.802 105C127.469 104.04 128.362 103.293 129.482 102.76C130.629 102.227 131.909 101.96 133.322 101.96C135.216 101.96 136.909 102.44 138.402 103.4C139.922 104.36 141.002 105.707 141.642 107.44L138.602 108.84C138.122 107.72 137.402 106.84 136.442 106.2C135.482 105.533 134.402 105.2 133.202 105.2C132.109 105.2 131.242 105.48 130.602 106.04C129.962 106.573 129.642 107.253 129.642 108.08C129.642 108.693 129.802 109.2 130.122 109.6C130.442 109.973 130.829 110.267 131.282 110.48C131.736 110.667 132.176 110.827 132.602 110.96L136.122 112C137.882 112.507 139.242 113.293 140.202 114.36C141.189 115.427 141.682 116.707 141.682 118.2C141.682 119.4 141.349 120.48 140.682 121.44C140.016 122.4 139.096 123.147 137.922 123.68C136.749 124.213 135.389 124.48 133.842 124.48ZM155.312 124.24C153.205 124.24 151.579 123.64 150.432 122.44C149.312 121.24 148.752 119.547 148.752 117.36V106H144.832V102.44H145.632C146.592 102.44 147.352 102.147 147.912 101.56C148.472 100.973 148.752 100.2 148.752 99.24V97.48H152.472V102.44H157.312V106H152.472V117.24C152.472 117.96 152.579 118.587 152.792 119.12C153.032 119.653 153.419 120.08 153.952 120.4C154.485 120.693 155.192 120.84 156.072 120.84C156.259 120.84 156.485 120.827 156.752 120.8C157.045 120.773 157.312 120.747 157.552 120.72V124C157.205 124.08 156.819 124.133 156.392 124.16C155.965 124.213 155.605 124.24 155.312 124.24ZM162.411 124V102.44H166.051V106.4L165.651 105.84C166.158 104.613 166.931 103.707 167.971 103.12C169.011 102.507 170.278 102.2 171.771 102.2H173.091V105.72H171.211C169.691 105.72 168.465 106.2 167.531 107.16C166.598 108.093 166.131 109.427 166.131 111.16V124H162.411ZM182.716 124.48C181.302 124.48 180.049 124.227 178.956 123.72C177.889 123.187 177.049 122.467 176.436 121.56C175.822 120.627 175.516 119.56 175.516 118.36C175.516 117.213 175.756 116.187 176.236 115.28C176.742 114.347 177.516 113.56 178.556 112.92C179.622 112.28 180.956 111.827 182.556 111.56L190.556 110.24V113.36L183.396 114.56C182.009 114.8 180.996 115.24 180.356 115.88C179.742 116.52 179.436 117.307 179.436 118.24C179.436 119.12 179.782 119.853 180.476 120.44C181.196 121.027 182.089 121.32 183.156 121.32C184.516 121.32 185.689 121.04 186.676 120.48C187.689 119.893 188.476 119.107 189.036 118.12C189.622 117.133 189.916 116.04 189.916 114.84V109.36C189.916 108.187 189.476 107.24 188.596 106.52C187.742 105.773 186.609 105.4 185.196 105.4C183.969 105.4 182.876 105.72 181.916 106.36C180.982 106.973 180.289 107.8 179.836 108.84L176.596 107.16C176.996 106.173 177.636 105.293 178.516 104.52C179.396 103.72 180.422 103.093 181.596 102.64C182.769 102.187 183.996 101.96 185.276 101.96C186.929 101.96 188.382 102.28 189.636 102.92C190.889 103.533 191.862 104.4 192.556 105.52C193.276 106.613 193.636 107.893 193.636 109.36V124H189.996V119.92L190.676 120.16C190.222 121.013 189.609 121.76 188.836 122.4C188.062 123.04 187.156 123.547 186.116 123.92C185.076 124.293 183.942 124.48 182.716 124.48ZM209.403 124.48C207.297 124.48 205.417 123.987 203.763 123C202.137 122.013 200.857 120.667 199.923 118.96C198.99 117.253 198.523 115.333 198.523 113.2C198.523 111.04 198.99 109.12 199.923 107.44C200.857 105.76 202.137 104.427 203.763 103.44C205.417 102.453 207.297 101.96 209.403 101.96C210.817 101.96 212.137 102.213 213.363 102.72C214.59 103.227 215.67 103.907 216.603 104.76C217.537 105.613 218.217 106.613 218.643 107.76L215.323 109.36C214.817 108.24 214.043 107.333 213.003 106.64C211.963 105.92 210.763 105.56 209.403 105.56C208.097 105.56 206.91 105.893 205.843 106.56C204.803 107.227 203.977 108.133 203.363 109.28C202.75 110.427 202.443 111.747 202.443 113.24C202.443 114.68 202.75 115.987 203.363 117.16C203.977 118.307 204.803 119.213 205.843 119.88C206.91 120.547 208.097 120.88 209.403 120.88C210.763 120.88 211.963 120.533 213.003 119.84C214.043 119.12 214.817 118.173 215.323 117L218.643 118.68C218.217 119.8 217.537 120.8 216.603 121.68C215.67 122.533 214.59 123.213 213.363 123.72C212.137 124.227 210.817 124.48 209.403 124.48ZM209.883 133.28C209.137 133.28 208.363 133.147 207.563 132.88C206.763 132.64 206.11 132.307 205.603 131.88L206.523 129.44C206.923 129.787 207.377 130.053 207.883 130.24C208.39 130.427 208.883 130.52 209.363 130.52C209.95 130.52 210.417 130.373 210.763 130.08C211.11 129.813 211.283 129.453 211.283 129C211.283 128.413 210.977 127.947 210.363 127.6C209.75 127.28 208.777 127.04 207.443 126.88L208.363 123.6H210.803L210.363 125.4C211.75 125.667 212.803 126.133 213.523 126.8C214.27 127.467 214.643 128.28 214.643 129.24C214.643 130.44 214.19 131.413 213.283 132.16C212.403 132.907 211.27 133.28 209.883 133.28ZM229.552 124.48C228.138 124.48 226.885 124.227 225.792 123.72C224.725 123.187 223.885 122.467 223.272 121.56C222.658 120.627 222.352 119.56 222.352 118.36C222.352 117.213 222.592 116.187 223.072 115.28C223.578 114.347 224.352 113.56 225.392 112.92C226.458 112.28 227.792 111.827 229.392 111.56L237.392 110.24V113.36L230.232 114.56C228.845 114.8 227.832 115.24 227.192 115.88C226.578 116.52 226.272 117.307 226.272 118.24C226.272 119.12 226.618 119.853 227.312 120.44C228.032 121.027 228.925 121.32 229.992 121.32C231.352 121.32 232.525 121.04 233.512 120.48C234.525 119.893 235.312 119.107 235.872 118.12C236.458 117.133 236.752 116.04 236.752 114.84V109.36C236.752 108.187 236.312 107.24 235.432 106.52C234.578 105.773 233.445 105.4 232.032 105.4C230.805 105.4 229.712 105.72 228.752 106.36C227.818 106.973 227.125 107.8 226.672 108.84L223.432 107.16C223.832 106.173 224.472 105.293 225.352 104.52C226.232 103.72 227.258 103.093 228.432 102.64C229.605 102.187 230.832 101.96 232.112 101.96C233.765 101.96 235.218 102.28 236.472 102.92C237.725 103.533 238.698 104.4 239.392 105.52C240.112 106.613 240.472 107.893 240.472 109.36V124H236.832V119.92L237.512 120.16C237.058 121.013 236.445 121.76 235.672 122.4C234.898 123.04 233.992 123.547 232.952 123.92C231.912 124.293 230.778 124.48 229.552 124.48ZM234.672 98.4C233.952 98.4 233.365 98.28 232.912 98.04C232.485 97.8 232.112 97.52 231.792 97.2C231.472 96.88 231.152 96.6 230.832 96.36C230.512 96.12 230.125 96 229.672 96C229.245 96 228.898 96.1733 228.632 96.52C228.392 96.84 228.272 97.4133 228.272 98.24H225.272C225.272 96.4533 225.658 95.12 226.432 94.24C227.232 93.3333 228.258 92.88 229.512 92.88C230.232 92.88 230.818 93 231.272 93.24C231.725 93.48 232.112 93.76 232.432 94.08C232.752 94.4 233.058 94.68 233.352 94.92C233.672 95.16 234.058 95.28 234.512 95.28C234.992 95.28 235.365 95.0933 235.632 94.72C235.898 94.32 236.032 93.76 236.032 93.04H238.992C238.992 94.6933 238.592 96 237.792 96.96C236.992 97.92 235.952 98.4 234.672 98.4ZM256.479 124.48C254.399 124.48 252.519 124 250.839 123.04C249.159 122.053 247.826 120.707 246.839 119C245.853 117.293 245.359 115.36 245.359 113.2C245.359 111.04 245.839 109.12 246.799 107.44C247.786 105.76 249.119 104.427 250.799 103.44C252.479 102.453 254.373 101.96 256.479 101.96C258.559 101.96 260.439 102.453 262.119 103.44C263.799 104.4 265.119 105.72 266.079 107.4C267.066 109.08 267.559 111.013 267.559 113.2C267.559 115.387 267.053 117.333 266.039 119.04C265.026 120.72 263.679 122.053 261.999 123.04C260.346 124 258.506 124.48 256.479 124.48ZM256.479 120.88C257.813 120.88 259.013 120.547 260.079 119.88C261.173 119.213 262.026 118.293 262.639 117.12C263.279 115.947 263.599 114.64 263.599 113.2C263.599 111.733 263.279 110.44 262.639 109.32C262.026 108.173 261.173 107.267 260.079 106.6C259.013 105.907 257.813 105.56 256.479 105.56C255.119 105.56 253.893 105.907 252.799 106.6C251.733 107.267 250.879 108.173 250.239 109.32C249.599 110.44 249.279 111.733 249.279 113.2C249.279 114.64 249.599 115.947 250.239 117.12C250.879 118.293 251.733 119.213 252.799 119.88C253.893 120.547 255.119 120.88 256.479 120.88Z" fill="#E1E1E6"/>
<path d="M252.048 377.776C251.63 372.785 251.475 367.775 251.584 362.768C251.584 362.352 250.976 362.24 250.928 362.768C250.405 367.787 250.459 372.849 251.088 377.856C251.099 377.983 251.16 378.101 251.257 378.184C251.355 378.266 251.481 378.307 251.608 378.296C251.736 378.285 251.853 378.225 251.936 378.127C252.019 378.03 252.059 377.903 252.048 377.776ZM244.8 375.904C244.829 375.969 244.876 376.024 244.936 376.063C244.996 376.101 245.065 376.122 245.136 376.122C245.207 376.122 245.277 376.101 245.337 376.063C245.396 376.024 245.443 375.969 245.472 375.904C245.248 370.864 245.04 365.808 244.816 360.752C244.816 360.667 244.783 360.586 244.723 360.526C244.663 360.466 244.581 360.432 244.496 360.432C244.411 360.432 244.33 360.466 244.27 360.526C244.21 360.586 244.176 360.667 244.176 360.752C243.963 364.569 244.006 368.397 244.304 372.208C244.315 373.456 244.481 374.698 244.8 375.904ZM286.736 376.544C286.893 379.016 286.617 381.496 285.92 383.872C285.92 384.24 286.992 386.272 287.664 380.432C288.086 376.488 287.263 372.51 285.312 369.056C285.104 368.672 284.56 369.056 284.736 369.392C285.844 371.63 286.522 374.056 286.736 376.544ZM267.344 260.88C267.333 262.084 267.74 263.255 268.496 264.192C269.456 265.056 270.944 261.696 275.408 261.168V256.848C272.294 257.076 269.395 258.525 267.344 260.88ZM309.408 376.448C309.408 373.152 309.12 369.872 309.056 366.576C309.056 366.128 308.368 366.224 308.368 366.672C308.368 370.08 308.368 373.52 308.512 376.944C308.576 379.2 309.456 378.368 309.408 376.448ZM278.4 256.768L278.496 261.088C284.016 261.28 285.616 265.44 286.208 264.144C286.464 263.552 287.504 260.592 286.944 260.08C284.595 257.971 281.557 256.793 278.4 256.768ZM163.568 230.8C162.736 231.248 163.568 233.216 164.224 232.784C164.88 232.352 164.48 230.272 163.568 230.8ZM162.512 225.984C161.392 226.096 161.36 227.248 162.512 227.392C163.347 227.457 164.156 227.708 164.88 228.128C165.312 228.416 165.776 227.84 165.52 227.44C165.191 226.955 164.739 226.565 164.211 226.309C163.683 226.054 163.097 225.942 162.512 225.984ZM159.648 231.616C160.076 232.739 160.414 233.895 160.656 235.072C160.928 236.448 160.912 236.816 160.848 236.896C160.59 236.904 160.333 236.937 160.08 236.992C159.616 237.152 159.616 237.744 160.336 238.08C160.532 238.179 160.752 238.216 160.969 238.188C161.186 238.159 161.389 238.066 161.552 237.92C162.384 237.12 162.032 234.864 160.528 231.216C160.475 231.099 160.378 231.009 160.258 230.964C160.138 230.919 160.005 230.923 159.888 230.976C159.772 231.029 159.681 231.126 159.636 231.246C159.591 231.366 159.595 231.499 159.648 231.616Z" fill="#27272A"/>
<path d="M391.552 424.352H368.848C370.944 413.152 358.496 405.264 350.752 409.392C349.957 405.511 347.772 402.054 344.608 399.671C341.444 397.287 337.518 396.141 333.568 396.448C333.147 393.699 332.107 391.081 330.527 388.792C328.948 386.503 326.869 384.602 324.448 383.232C323.696 374.272 324.032 365.152 324.048 356.304C325.408 356.4 328.672 356.704 328.144 355.408C326.544 351.44 323.808 344.816 321.744 341.008C322.576 341.008 323.52 341.008 323.52 340.16C323.776 324.8 324.272 292.576 324.272 292.576C324.528 273.504 325.168 251.584 311.776 235.888C311.36 235.392 310.784 235.216 310.416 235.728C304.968 243.441 301.386 252.314 299.952 261.648C299.408 252.528 298.688 242.224 297.28 232.032C294.88 214.736 289.088 203.12 279.68 196.224C278.784 195.568 277.472 194.512 276.88 194.928C262.192 205.328 257.872 223.472 256.848 236.864C256.48 242.56 256.368 248.336 256.512 254.064C254.544 246.72 247.792 232.384 245.312 235.84C233.76 252.384 234.736 273.76 235.712 292.624C237.312 328.56 237.792 337.824 238 340.24C238 341.024 238 341.552 240.208 341.312C235.552 353.648 234.592 355.712 235.008 356.064C235.424 356.416 237.072 356.304 237.872 356.256C237.76 361.648 239.04 387.856 238.864 389.248C237.703 390.663 236.769 392.25 236.096 393.952C233.369 394.694 230.838 396.026 228.681 397.853C226.525 399.681 224.796 401.959 223.616 404.528C221.488 404.32 219.342 404.673 217.392 405.552C215.472 384.256 211.536 352.064 206.72 330.624C214.96 331.696 218.896 328 220.8 324.8C225.6 316.432 222.4 302.528 216.448 294.832C211.41 284.114 204.022 274.67 194.832 267.2C195.808 265.344 193.232 256.912 186.688 253.44C183.888 251.952 180.16 251.84 178.448 250.24C174.784 246.656 177.248 237.12 169.616 234.624C169.123 230.681 168.304 226.785 167.168 222.976C176.768 218.848 176.272 207.68 170.608 204.512C165.328 201.568 162.416 205.744 158.944 206.912C154.144 208.512 150.064 205.056 143.76 205.056C131.872 205.056 129.056 217.024 128.432 217.616C127.808 218.208 127.568 221.584 122.272 223.664C116.64 225.856 109.472 225.984 106.416 232.608C103.824 238.4 108.8 245.472 105.376 250.832C103.376 254.032 96.1922 254.224 90.9762 262.592C85.3922 271.504 87.2642 283.6 94.9602 288.624C88.3362 303.504 88.6402 319.328 95.7442 329.984C102.24 339.696 112.832 343.344 124.336 343.04C123.76 370.144 124 397.168 122.56 424.448C117.36 424.448 112.144 424.56 107.04 424.656C106.896 424.656 106.758 424.713 106.656 424.815C106.554 424.917 106.496 425.056 106.496 425.2C106.496 425.344 106.554 425.483 106.656 425.585C106.758 425.687 106.896 425.744 107.04 425.744C111.6 425.84 116.992 425.936 122.464 425.936C121.584 441.824 120.4 457.936 118.944 473.728C118.8 475.328 122.544 475.232 124.128 475.328C123.691 477.55 123.524 479.818 123.632 482.08C122.416 483.152 120.64 490.48 120.736 491.84C120.736 492.128 120.864 492.304 121.056 492.336C122.816 492.624 149.408 493.936 150.64 492.48C150.671 492.424 150.687 492.36 150.687 492.296C150.687 492.232 150.671 492.169 150.64 492.112C148.864 487.312 142.64 483.264 137.552 481.952L138.928 475.824C139.984 475.824 142.128 475.984 142.432 475.424C149.584 459.296 156.096 442.64 161.776 425.952H185.04C189.472 440.178 193.384 454.561 196.768 469.072C198.128 474.928 197.184 474.608 200.96 474.784C200.942 477.066 201.217 479.34 201.776 481.552C200.549 484.44 199.808 487.511 199.584 490.64C199.553 490.694 199.537 490.754 199.537 490.816C199.537 490.878 199.553 490.939 199.584 490.992C200.592 492.272 229.312 493.344 231.28 492.176C232.88 491.152 224.112 482.656 216.336 481.088C216.448 479.045 216.4 476.996 216.192 474.96C217.552 474.96 220.688 475.328 220.688 473.984C220.688 458.88 220.176 442.704 219.088 425.984H391.6C391.817 425.978 392.022 425.886 392.17 425.728C392.319 425.571 392.399 425.361 392.392 425.144C392.386 424.928 392.294 424.723 392.136 424.574C391.979 424.426 391.769 424.346 391.552 424.352ZM174.832 395.808C178.816 406.768 180.944 413.584 184.544 424.496H162.256C166.144 412.992 171.52 395.696 175.056 381.152C176.256 376.352 178.672 378.384 177.792 382.288C176.768 387.104 174.784 395.696 174.832 395.808ZM215.2 481.248C212.464 482.496 205.6 482.416 202.928 481.648C202.752 479.36 202.288 477.072 202.256 474.784L214.832 474.928C214.944 477.04 215.072 479.136 215.2 481.248ZM125.6 343.024C139.04 342.352 155.024 336.208 168.4 326.56C168.688 326.352 168.944 326.304 169.024 326.032C169.104 325.76 169.024 325.536 168.544 324.848C172.302 323.089 176.247 321.763 180.304 320.896C181.904 320.608 186.592 319.712 187.44 317.168L190.928 317.072C194.288 324.032 199.632 328.864 205.616 330.368L208.816 349.392C182.384 358.496 158.256 360.432 125.696 356C125.808 351.696 125.824 347.328 125.648 343.024H125.6ZM167.536 245.504C165.296 251.312 160.624 251.552 161.376 252.928V253.424C161.68 255.968 162.272 261.2 158.176 264.896C151.264 262.144 146.976 258.976 143.776 254.368C144.448 253.2 143.776 248.096 143.776 248.048C142.784 242.832 138.24 241.776 139.264 237.056C139.408 236.368 139.616 235.968 139.888 235.84C140.784 235.44 143.088 238.528 143.568 234.944C144.32 229.824 145.76 225.872 150.832 224.432C155.536 223.104 160.08 225.376 166.16 223.28C167.536 228.976 169.904 239.28 167.536 245.504ZM158.416 266.304C161.184 265.616 163.552 258.816 162.976 255.008C167.294 255.618 171.547 256.625 175.68 258.016C190.72 263.376 203.776 274.832 212.592 290.384C206.576 284.624 198.704 281.376 191.584 281.824C189.314 278.104 186.706 274.601 183.792 271.36C183.749 271.312 183.696 271.274 183.636 271.247C183.577 271.221 183.513 271.207 183.448 271.207C183.383 271.207 183.319 271.221 183.26 271.247C183.201 271.274 183.148 271.312 183.104 271.36C183.058 271.405 183.022 271.458 182.997 271.517C182.972 271.576 182.959 271.64 182.959 271.704C182.959 271.768 182.972 271.832 182.997 271.891C183.022 271.95 183.058 272.003 183.104 272.048C185.661 275.227 188.017 278.561 190.16 282.032C188.04 282.352 185.995 283.057 184.128 284.112C183.826 284.142 183.526 284.195 183.232 284.272C182.354 284.471 181.46 284.594 180.56 284.64C176.816 284.64 176.672 283.04 175.328 283.216C172.656 283.488 173.44 288.768 179.584 289.888C178.48 292.976 177.984 299.776 180.048 302.688C177.584 302.688 176 302.176 175.904 304.688C175.872 305.141 175.872 305.595 175.904 306.048C175.111 305.538 174.213 305.212 173.277 305.096C172.341 304.979 171.39 305.075 170.496 305.376C168.816 306.016 165.616 309.36 164 310.752C164 310.08 164 309.056 163.408 308.992C153.248 308.144 137.808 307.904 128.56 308.16C128.053 301.632 128.139 295.072 128.816 288.56C128.844 288.426 128.817 288.287 128.742 288.173C128.667 288.059 128.55 287.98 128.416 287.952C128.283 287.924 128.143 287.951 128.029 288.026C127.915 288.101 127.836 288.218 127.808 288.352C127.296 291.232 126.304 302.976 127.344 308.208L114.24 309.072C114.143 309.081 114.052 309.12 113.977 309.182C113.903 309.244 113.849 309.328 113.823 309.421C113.797 309.515 113.8 309.614 113.832 309.706C113.863 309.798 113.922 309.878 114 309.936C114.045 309.976 114.099 310.006 114.157 310.023C114.215 310.039 114.277 310.043 114.336 310.032C130.49 309.043 146.693 309.15 162.832 310.352C162.907 315.758 164.534 321.029 167.52 325.536C146.176 340.912 111.056 350.96 96.7202 329.168C86.4002 313.6 91.5202 286.4 110.656 269.792C119.797 261.955 130.917 256.785 142.8 254.848C145.696 260.368 156.32 266.784 158.4 266.272L158.416 266.304ZM182.128 285.696C181.313 286.557 180.628 287.533 180.096 288.592C177.104 288.144 175.408 286.576 175.12 285.28C174.896 284.384 175.424 284.016 176.528 284.768C178.265 285.615 180.211 285.938 182.128 285.696ZM189.904 294.512C189.823 294.605 189.775 294.723 189.768 294.846C189.76 294.97 189.794 295.092 189.863 295.194C189.933 295.296 190.034 295.373 190.151 295.412C190.269 295.45 190.396 295.449 190.512 295.408C191.808 294.896 192.416 295.008 192.512 295.248C192.608 295.488 192.096 296.672 191.056 297.184C190.384 297.52 189.088 297.824 188.096 296.016C187.28 294.544 188.672 292.928 188.096 292.592C187.52 292.256 185.888 294.736 187.28 296.912C186.993 297.123 186.649 297.243 186.292 297.257C185.936 297.272 185.584 297.179 185.28 296.992C184.576 296.448 184.096 294.928 184.912 292.192C185.216 291.136 183.424 290.864 183.2 295.392C183.104 296.016 182.416 299.856 182.208 301.152C182 302.448 181.712 302.544 181.68 302.56C181.648 302.576 181.504 302.56 181.376 302.384C180.24 301.104 178.88 294.592 181.056 289.584C181.733 287.895 182.888 286.441 184.381 285.4C185.873 284.36 187.638 283.779 189.456 283.728C190.526 283.708 191.585 283.946 192.542 284.423C193.5 284.899 194.328 285.6 194.957 286.466C195.585 287.332 195.995 288.337 196.152 289.395C196.308 290.453 196.207 291.533 195.856 292.544C195.684 293.082 195.391 293.573 195 293.981C194.609 294.388 194.13 294.701 193.6 294.896C193.418 294.584 193.164 294.319 192.86 294.123C192.556 293.927 192.209 293.805 191.85 293.768C191.49 293.73 191.126 293.778 190.788 293.907C190.45 294.037 190.147 294.244 189.904 294.512ZM178.128 308.064C177.932 307.512 177.554 307.044 177.056 306.736L177.248 304.144H184.832C184.832 305.008 185.072 307.552 185.072 307.552C182.749 307.562 180.428 307.733 178.128 308.064ZM183.088 302.704C183.511 300.956 183.815 299.181 184 297.392C184.52 297.959 185.227 298.319 185.991 298.407C186.755 298.495 187.525 298.305 188.16 297.872L188.416 298.048C187.732 301.172 187.645 304.396 188.16 307.552H186.56C186.604 306.038 186.437 304.525 186.064 303.056C185.6 302.64 183.792 302.704 183.088 302.704ZM170.768 306.576C171.841 306.308 172.965 306.328 174.027 306.634C175.089 306.941 176.051 307.522 176.816 308.32C177.104 308.8 177.056 308.96 177.04 309.008C177.024 309.056 176.08 309.184 175.44 309.152C174.495 308.999 173.525 309.133 172.656 309.536C171.337 310.594 170.473 312.117 170.24 313.792C170 317.872 181.792 317.36 185.824 317.232C182.848 320.272 173.984 319.584 167.984 323.776C165.887 320.159 164.553 316.152 164.064 312C165.12 311.52 169.072 307.312 170.768 306.576ZM220.8 321.792C217.344 331.888 206.512 329.296 206.064 329.184C198.512 327.28 194.144 320.24 192.496 316.976C194.288 316.56 193.776 314.8 193.6 313.104L207.552 312.784C208.672 314.912 211.328 314.208 211.2 312.08C211.217 311.617 211.07 311.163 210.787 310.796C210.504 310.43 210.101 310.174 209.649 310.073C209.196 309.972 208.723 310.033 208.311 310.245C207.899 310.457 207.574 310.806 207.392 311.232C205.392 311.056 195.552 311.328 193.488 311.552C193.248 307.264 193.488 307.568 189.536 307.584C189.168 304.577 189.168 301.536 189.536 298.528C190.374 298.684 191.241 298.541 191.984 298.123C192.727 297.704 193.299 297.038 193.6 296.24C196.256 295.904 198.928 291.296 196.576 286.368C196.136 285.541 195.529 284.814 194.794 284.233C194.059 283.652 193.211 283.229 192.304 282.992C204.512 282.672 215.568 292.512 219.984 304.224C220.208 304.224 220.352 304.064 219.984 304.224C222.257 309.814 222.545 316.015 220.8 321.792ZM137.6 475.792C137.091 477.808 136.717 479.855 136.48 481.92C132.588 482.323 128.668 482.366 124.768 482.048C125.024 479.824 125.264 477.616 125.504 475.392L137.6 475.792ZM350.88 410.336C354.368 407.472 369.792 411.12 367.488 424.4H218.992L217.6 406.672C225.712 403.856 231.664 408.144 233.76 413.36C234.128 414.336 236.192 413.504 232.976 409.488C230.933 406.962 228.047 405.258 224.848 404.688C232.592 389.776 254.512 392.16 258.768 408.192C258.992 409.04 260.256 408.624 260.032 407.776C258.748 403.048 255.73 398.978 251.578 396.377C247.426 393.776 242.446 392.836 237.632 393.744C238.989 391.017 240.996 388.666 243.477 386.898C245.958 385.131 248.837 384.002 251.857 383.612C254.878 383.221 257.949 383.581 260.798 384.659C263.647 385.736 266.187 387.5 268.192 389.792C269.664 391.392 274.592 400.768 276.192 401.872C274.877 404.128 274.053 406.636 273.776 409.232C271.798 409.957 270 411.1 268.503 412.582C267.007 414.065 265.847 415.853 265.104 417.824C265.051 417.945 265.048 418.082 265.096 418.205C265.144 418.328 265.239 418.427 265.36 418.48C265.481 418.533 265.618 418.536 265.741 418.488C265.864 418.44 265.963 418.345 266.016 418.224C266.984 415.982 268.52 414.03 270.472 412.563C272.424 411.095 274.726 410.162 277.149 409.855C279.572 409.548 282.033 409.878 284.289 410.813C286.546 411.747 288.52 413.254 290.016 415.184C290.122 415.333 290.283 415.433 290.463 415.463C290.643 415.493 290.828 415.45 290.976 415.344C291.125 415.238 291.225 415.077 291.255 414.897C291.285 414.717 291.242 414.533 291.136 414.384C289.293 411.943 286.76 410.111 283.865 409.125C280.971 408.138 277.846 408.041 274.896 408.848C275.366 406.3 276.347 403.874 277.78 401.716C279.213 399.557 281.067 397.711 283.232 396.288C285.85 394.61 288.851 393.624 291.954 393.424C295.057 393.224 298.16 393.815 300.972 395.142C303.784 396.47 306.212 398.49 308.029 401.013C309.846 403.537 310.993 406.48 311.36 409.568C311.395 409.728 311.486 409.869 311.618 409.966C311.749 410.063 311.911 410.109 312.073 410.095C312.236 410.081 312.388 410.009 312.501 409.891C312.614 409.774 312.681 409.619 312.688 409.456C312.264 405.934 310.902 402.591 308.743 399.776C306.584 396.961 303.708 394.779 300.416 393.456C301.484 390.639 303.257 388.143 305.565 386.207C307.873 384.271 310.64 382.96 313.6 382.4C322.944 380.96 330.96 388.144 332.144 396.608C329.696 397.013 327.372 397.968 325.346 399.401C323.32 400.834 321.646 402.707 320.448 404.88C320.16 405.424 321.04 405.904 321.344 405.376C323.091 402.423 325.76 400.126 328.939 398.837C332.119 397.547 335.634 397.338 338.944 398.24C342.129 399.255 344.9 401.272 346.844 403.992C348.788 406.711 349.8 409.986 349.728 413.328C349.728 413.76 350.304 414.304 350.736 414C350.912 413.888 351.424 413.52 350.896 410.336H350.88ZM258.32 237.728C269.296 235.808 280.72 235.472 296.48 236.64C299.008 258.384 299.376 278.864 299.776 300.736C296.704 293.952 293.584 284.048 293.632 277.216C293.617 269.268 291.685 261.442 288 254.4C283.616 246.032 277.68 240.112 271.216 247.056C262.256 256.656 262.896 268.24 263.072 281.088C262.479 286.802 261.25 292.431 259.408 297.872C258.848 271.2 257.296 251.552 258.32 237.728ZM322.448 339.712C321.271 339.528 320.073 339.528 318.896 339.712L319.056 327.104C319.103 326.818 319.084 326.526 319.001 326.249C318.918 325.971 318.773 325.717 318.576 325.504C314.912 322.432 304.656 312.544 301.264 303.728C301.264 294.448 301.12 285.04 300.752 275.76C308.864 275.52 316.448 275.616 322.832 275.76C323.472 291.36 322.272 318.624 322.448 339.712ZM258.544 382.512C255.305 381.792 251.936 381.901 248.751 382.83C245.565 383.759 242.665 385.476 240.32 387.824C240.208 384.384 239.504 363.008 239.264 356.288L257.44 355.936C257.392 359.184 258.24 379.376 258.544 382.512ZM293.968 288.256C296.896 300.368 302.144 313.312 317.664 326.48C317.664 330.8 317.168 341.728 317.456 345.888C317.136 345.888 293.584 346.048 291.856 346.192C293.646 326.935 294.351 307.592 293.968 288.256ZM263.424 288.496C264.496 308.096 266.464 327.6 269.296 346.544C265.376 346.448 246.992 345.888 244.32 346.016C244.32 343.392 243.664 328.288 243.6 326.816C253.791 316.24 260.68 302.924 263.424 288.496ZM258.624 355.904C259.776 355.904 262.32 356.176 262.176 355.04C261.457 352.538 260.476 350.12 259.248 347.824L269.456 347.968C269.696 349.44 269.92 350.912 270.144 352.384C268.64 353.984 265.6 363.264 265.184 364.944C265.152 365.056 265.147 365.173 265.169 365.287C265.192 365.401 265.241 365.509 265.312 365.6C265.696 366.08 266.704 366.144 267.776 366.144C263.12 373.52 265.648 382.64 267.424 387.136C265.21 385.195 262.616 383.735 259.808 382.848C260.176 379.92 258.832 358.592 258.64 355.904H258.624ZM266.816 373.248C267.155 370.778 267.959 368.395 269.184 366.224C276.565 366.52 283.956 366.44 291.328 365.984C292.208 369.456 300.224 378.56 290.272 392.24C287.571 392.606 284.978 393.536 282.66 394.969C280.341 396.403 278.351 398.308 276.816 400.56C271.152 392 265.376 383.552 266.832 373.248H266.816ZM292.56 305.696C292.32 321.824 291.328 335.952 290.144 351.408L271.312 351.904C267.76 327.312 266.24 309.712 264.912 289.504C264.544 283.776 264.176 277.84 264.304 272.032C264.512 262.064 266.544 254.96 270.704 249.632C276.592 242.128 281.36 245.472 286.032 253.776C288.715 258.57 290.56 263.786 291.488 269.2C292.928 277.36 292.64 301.04 292.576 305.696H292.56ZM299.28 393.04C296.978 392.294 294.561 391.969 292.144 392.08C294.836 388.277 296.336 383.758 296.453 379.1C296.57 374.442 295.298 369.854 292.8 365.92C293.84 365.92 296.608 365.92 296.288 364.944C295.744 363.12 294.208 359.328 292.976 356.272C292.176 354.256 291.376 352.512 291.376 352.048C291.472 351.2 291.856 347.424 291.856 347.424C293.344 347.664 300.464 347.424 302.88 347.424C300.848 353.824 301.12 353.024 300.688 354.128C300.368 354.976 300.208 355.392 300.416 355.728C300.624 356.064 301.472 356.048 303.616 356.096C303.616 365.328 304.4 376 304.8 385.2C302.208 387.19 300.287 389.926 299.296 393.04H299.28ZM304.64 356.08L322.864 356.256C322.284 364.968 322.316 373.709 322.96 382.416C320.214 381.212 317.202 380.739 314.218 381.045C311.235 381.35 308.382 382.424 305.936 384.16C305.6 374.8 305.344 365.184 304.656 356.08H304.64ZM258.4 236.528C259.504 223.584 263.76 206.256 277.6 196.304C290.912 205.44 294.544 221.04 296.304 235.168C284.96 234.336 268.992 234.448 258.416 236.528H258.4ZM236.8 277.856C240.528 277.856 254.4 277.664 257.6 277.648C257.888 285.328 258.182 293.019 258.48 300.72C255.52 308.4 248.88 320.208 242.656 326C242.336 327.6 242.752 337.904 242.832 339.76C241.664 339.872 240.496 339.984 239.408 340.144C238.768 318.608 236.8 290.784 236.8 277.856Z" fill="#27272A"/>
<path d="M159.344 241.68C155.008 241.344 153.904 238.192 152.944 238.48C152.688 238.48 152.576 238.816 152.512 238.992C151.152 241.952 152.88 245.632 155.904 245.632C156.835 245.532 157.72 245.182 158.467 244.619C159.214 244.055 159.793 243.299 160.144 242.432C160.197 242.322 160.214 242.198 160.191 242.077C160.169 241.957 160.109 241.847 160.019 241.763C159.93 241.68 159.817 241.626 159.696 241.611C159.574 241.596 159.451 241.62 159.344 241.68ZM158.576 242.784C156.416 245.664 152.992 244.384 153.328 240.432C153.992 241.167 154.801 241.755 155.705 242.16C156.608 242.565 157.586 242.778 158.576 242.784ZM280 311.632C279.975 311.462 279.889 311.306 279.758 311.193C279.627 311.081 279.461 311.019 279.288 311.019C279.116 311.019 278.949 311.081 278.819 311.193C278.688 311.306 278.602 311.462 278.576 311.632C278.576 314.048 279.376 343.856 279.824 347.088C279.824 347.241 279.885 347.387 279.993 347.495C280.101 347.603 280.248 347.664 280.4 347.664C280.553 347.664 280.7 347.603 280.808 347.495C280.916 347.387 280.976 347.241 280.976 347.088C281.696 336.912 280.336 322.176 280 311.632ZM153.6 234.144C154.112 234.144 154.272 233.6 154.16 233.04C153.936 231.92 153.04 231.856 152.816 232.496C152.592 233.136 152.912 234.144 153.6 234.144ZM151.904 227.376C151.184 227.519 150.535 227.906 150.066 228.471C149.597 229.036 149.336 229.746 149.328 230.48C149.456 231.312 150.144 231.312 150.256 230.704C150.592 228.992 151.312 229.104 152.208 228.56C152.337 228.497 152.441 228.391 152.501 228.261C152.561 228.131 152.575 227.983 152.539 227.844C152.503 227.705 152.421 227.582 152.305 227.497C152.189 227.412 152.048 227.369 151.904 227.376ZM315.328 377.776C315.328 378.08 315.92 377.984 315.984 377.68C316.24 376.592 315.056 364.192 315.248 360.832C315.248 360.4 314.608 360.416 314.576 360.832C314.281 366.491 314.533 372.165 315.328 377.776ZM278.528 390.784C278.848 391.024 279.344 390.64 279.136 390.288C278.528 389.216 277.664 388.384 276.752 386.736C275.353 384.124 274.545 381.237 274.387 378.278C274.23 375.319 274.726 372.362 275.84 369.616C276.016 369.216 275.376 368.976 275.184 369.392C273.824 372.514 273.271 375.927 273.576 379.319C273.881 382.71 275.034 385.971 276.928 388.8C277.356 389.54 277.896 390.209 278.528 390.784Z" fill="#27272A"/>
</svg>
